<svg width="381" height="370" viewBox="0 0 381 370" fill="none" xmlns="http://www.w3.org/2000/svg">
<g opacity="0.7">
<path d="M326.837 115.171C346.462 93.9688 346.462 59.5929 326.837 38.3905C307.212 17.1881 275.393 17.1881 255.768 38.3905C236.143 59.5929 236.143 93.9688 255.768 115.171C275.393 136.374 307.212 136.374 326.837 115.171Z" fill="#D5EEE2"/>
<path d="M306.242 102.337C306.242 102.337 305.24 92.3561 318.225 93.4383C318.225 93.4383 320.943 83.8986 330.524 82.646C341.33 81.2331 344.938 89.7206 346.181 91.6045C346.181 91.6045 363.461 86.9649 365.455 102.337H306.242Z" fill="white"/>
<path d="M11.5843 157.64C11.5843 157.64 12.2893 143.501 26.4063 147.93C26.4063 147.93 31.8416 138.36 41.998 141.126C45.3371 142.038 48.3051 144.253 49.9747 147.509C51.2176 149.944 52.006 153.311 50.9393 157.64H11.5843Z" fill="white"/>
<path d="M141.858 253.099H90.0652V367.996H141.858V253.099Z" fill="#C8E4D6"/>
<path d="M68.441 256.876H24.1423V367.995H68.441V256.876Z" fill="#D5EEE2"/>
<path d="M62.9152 256.876H19.4884V263.269H62.9152V256.876Z" fill="#C8E4D6"/>
<path d="M99.2813 195.399H47.4882V367.996H99.2813V195.399Z" fill="#D5EEE2"/>
<path d="M151.384 217.845H111.529V367.996H151.384V217.845Z" fill="#C8E4D6"/>
<path d="M360.482 223.918H313.187V232.155H317.389V243.268H303.504V172.331H269.733V368.937H355.705V232.155H360.482V223.918Z" fill="#D5EEE2"/>
<path d="M92.5349 151.528H108.934" stroke="#96BDA9" stroke-width="4.82866" stroke-miterlimit="10"/>
<path d="M92.5349 224.81H108.934" stroke="#96BDA9" stroke-width="4.82866" stroke-miterlimit="10"/>
<path d="M92.5349 186.43H108.934" stroke="#96BDA9" stroke-width="4.82866" stroke-miterlimit="10"/>
<path d="M98.1189 131.206H72.0368V245.793H98.1189V131.206Z" fill="#D0F2E3"/>
<path d="M81.2041 154.469H82.4832V150.341H87.3001V154.469H88.5792V145.403H87.3001V149.218H82.4832V145.403H81.2041V154.469Z" fill="#75AC93"/>
<path d="M84.906 172.018C87.573 172.018 89.6549 169.954 89.6549 167.355C89.6549 164.742 87.5594 162.691 84.8788 162.691C82.2118 162.691 80.1299 164.742 80.1299 167.342C80.1299 169.941 82.239 172.018 84.906 172.018ZM84.8788 170.843C82.8785 170.843 81.4498 169.379 81.4498 167.342C81.4498 165.317 82.8785 163.867 84.8788 163.867C86.8926 163.867 88.335 165.33 88.335 167.342C88.335 169.379 86.8926 170.843 84.8788 170.843Z" fill="#75AC93"/>
<path d="M84.2593 189.306H85.5383V181.363H88.736V180.24H81.048V181.363H84.2593V189.306Z" fill="#75AC93"/>
<path d="M81.9947 206.724H88.2812V205.601H83.2738V202.622H87.8322V201.551H83.2738V198.781H88.2132V197.658H81.9947V206.724Z" fill="#75AC93"/>
<path d="M82.2539 224.142H88.1866V223.019H83.5329V215.076H82.2539V224.142Z" fill="#75AC93"/>
<path d="M99.4563 247.226H70.7215V129.773H99.4563V247.226ZM73.3742 244.36H96.8128V132.629H73.3742V244.36Z" fill="#88BCA4"/>
<path d="M248.558 76.2418H136.81V95.7622H248.558V76.2418Z" fill="#D0F2E3"/>
<path d="M217.797 142.146C240.781 127.155 248.164 94.8727 234.289 70.0418C220.413 45.2108 190.533 37.2338 167.549 52.2247C144.565 67.2155 137.182 99.4974 151.057 124.328C164.933 149.159 194.813 157.136 217.797 142.146Z" fill="#D0F2E3"/>
<path d="M162.03 75.4717C162.03 75.4717 171.797 54.2378 192.527 54.2378C213.257 54.2378 223.34 75.4717 223.34 75.4717H162.039H162.03Z" fill="#D0F2F4"/>
<path d="M185.709 75.4712L181.47 74.4892L193.51 53.4056L197.841 54.2373L185.709 75.4712Z" fill="#EEF8FF"/>
<path d="M190.812 76.2423L188.493 74.6991L200.124 54.6877L202.443 56.2309L190.812 76.2423Z" fill="#EEF8FF"/>
<path d="M225.545 76.9339H159.858L160.823 74.8295C160.925 74.6091 171.211 52.7839 192.525 52.7839C213.84 52.7839 224.108 73.9176 224.534 74.8195L225.545 76.9439V76.9339ZM164.375 74.0178H220.945C217.782 68.787 208.303 55.7 192.516 55.7C176.73 55.7 167.427 68.8071 164.366 74.0178H164.375Z" fill="#88BCA4"/>
<path d="M193.871 54.2378H191.172V75.4717H193.871V54.2378Z" fill="#88BCA4"/>
<path d="M276.418 87.5355H108.934V367.634H276.418V87.5355Z" fill="#D0F2E3"/>
<path d="M276.418 91.0342H108.935V100.494H276.418V91.0342Z" fill="#88BCA4"/>
<path d="M276.418 82.496H108.935V87.5364H276.418V82.496Z" fill="#88BCA4"/>
<path d="M276.418 191.611H108.934V195.431H276.418V191.611Z" fill="#88BCA4"/>
<path d="M276.418 276.007H108.934V279.827H276.418V276.007Z" fill="#88BCA4"/>
<path d="M252.589 121.928H230.644V170.769H252.589V121.928Z" fill="#D0F2F4"/>
<path d="M232.386 158.113L230.438 153.112L248.915 120.766L252.402 123.09L232.386 158.113Z" fill="#EEF8FF"/>
<path d="M251.165 129.685L229.457 167.658L231.777 169.206L253.485 131.233L251.165 129.685Z" fill="#EEF8FF"/>
<path d="M256.941 172.24H225.841V178.022H256.941V172.24Z" fill="#88BCA4"/>
<path d="M256.941 178.023H225.841V181.734H256.941V178.023Z" fill="#88BCA4"/>
<path d="M253.945 172.231H229.3V120.474H253.945V172.231ZM231.999 169.315H251.245V123.39H231.999V169.315Z" fill="#88BCA4"/>
<path d="M252.589 144.894H230.644V147.812H252.589V144.894Z" fill="#88BCA4"/>
<path d="M203.725 121.928H181.78V170.769H203.725V121.928Z" fill="#D0F2F4"/>
<path d="M183.517 158.113L181.579 153.112L200.055 120.766L203.533 123.09L183.517 158.113Z" fill="#EEF8FF"/>
<path d="M202.309 129.694L180.601 167.668L182.921 169.216L204.63 131.242L202.309 129.694Z" fill="#EEF8FF"/>
<path d="M208.069 172.24H176.969V178.022H208.069V172.24Z" fill="#88BCA4"/>
<path d="M208.069 178.023H176.969V181.734H208.069V178.023Z" fill="#88BCA4"/>
<path d="M205.073 172.231H180.428V120.474H205.073V172.231ZM183.127 169.315H202.373V123.39H183.127V169.315Z" fill="#88BCA4"/>
<path d="M203.729 144.894H181.784V147.812H203.729V144.894Z" fill="#88BCA4"/>
<path d="M154.857 121.928H132.912V170.769H154.857V121.928Z" fill="#D0F2F4"/>
<path d="M134.654 158.113L132.707 153.112L151.183 120.766L154.67 123.09L134.654 158.113Z" fill="#EEF8FF"/>
<path d="M153.433 129.694L131.725 167.668L134.045 169.216L155.753 131.243L153.433 129.694Z" fill="#EEF8FF"/>
<path d="M159.209 172.24H128.109V178.022H159.209V172.24Z" fill="#88BCA4"/>
<path d="M159.209 178.023H128.109V181.734H159.209V178.023Z" fill="#88BCA4"/>
<path d="M156.213 172.231H131.568V120.474H156.213V172.231ZM134.267 169.315H153.514V123.39H134.267V169.315Z" fill="#88BCA4"/>
<path d="M154.857 144.894H132.912V147.812H154.857V144.894Z" fill="#88BCA4"/>
<path d="M252.593 207.104H230.648V255.945H252.593V207.104Z" fill="#D0F2F4"/>
<path d="M232.39 243.289L230.443 238.278L248.919 205.942L252.406 208.266L232.39 243.289Z" fill="#EEF8FF"/>
<path d="M251.177 214.88L229.469 252.854L231.789 254.402L253.498 216.428L251.177 214.88Z" fill="#EEF8FF"/>
<path d="M256.941 257.416H225.841V263.198H256.941V257.416Z" fill="#88BCA4"/>
<path d="M256.941 263.199H225.841V266.91H256.941V263.199Z" fill="#88BCA4"/>
<path d="M253.945 257.407H229.3V205.65H253.945V257.407ZM231.999 254.491H251.245V208.566H231.999V254.491Z" fill="#88BCA4"/>
<path d="M252.589 230.06H230.644V232.978H252.589V230.06Z" fill="#88BCA4"/>
<path d="M203.729 207.104H181.784V255.945H203.729V207.104Z" fill="#D0F2F4"/>
<path d="M183.517 243.289L181.579 238.278L200.055 205.942L203.533 208.266L183.517 243.289Z" fill="#EEF8FF"/>
<path d="M202.322 214.882L180.613 252.856L182.933 254.404L204.642 216.43L202.322 214.882Z" fill="#EEF8FF"/>
<path d="M208.069 257.416H176.969V263.198H208.069V257.416Z" fill="#88BCA4"/>
<path d="M208.069 263.199H176.969V266.91H208.069V263.199Z" fill="#88BCA4"/>
<path d="M205.073 257.407H180.428V205.65H205.073V257.407ZM183.127 254.491H202.374V208.566H183.127V254.491Z" fill="#88BCA4"/>
<path d="M203.729 230.06H181.784V232.978H203.729V230.06Z" fill="#88BCA4"/>
<path d="M154.857 207.104H132.912V255.945H154.857V207.104Z" fill="#D0F2F4"/>
<path d="M134.659 243.289L132.711 238.278L151.187 205.942L154.675 208.266L134.659 243.289Z" fill="#EEF8FF"/>
<path d="M153.446 214.88L131.737 252.854L134.057 254.402L155.766 216.428L153.446 214.88Z" fill="#EEF8FF"/>
<path d="M159.209 257.416H128.109V263.198H159.209V257.416Z" fill="#88BCA4"/>
<path d="M159.209 263.199H128.109V266.91H159.209V263.199Z" fill="#88BCA4"/>
<path d="M156.213 257.407H131.568V205.65H156.213V257.407ZM134.267 254.491H153.514V208.566H134.267V254.491Z" fill="#88BCA4"/>
<path d="M154.857 230.06H132.912V232.978H154.857V230.06Z" fill="#88BCA4"/>
<path d="M241.222 296.568H143.841V367.635H241.222V296.568Z" fill="#88BCA4"/>
<path d="M210.321 306.851C212.657 296.256 206.601 285.621 196.795 283.097C186.988 280.573 177.144 287.116 174.808 297.711C172.471 308.306 178.527 318.941 188.334 321.465C198.141 323.989 207.985 317.446 210.321 306.851Z" fill="#88BCA4"/>
<path d="M232.92 305.236H152.151V367.635H232.92V305.236Z" fill="#88BCA4"/>
<path d="M192.536 304.284V366.222" stroke="#6EA68A" stroke-width="4.64861" stroke-miterlimit="10"/>
<path d="M192.537 287.769L194.012 291.587L197.824 291.918L194.921 294.614L195.802 298.642L192.537 296.487L189.272 298.642L190.153 294.614L187.25 291.918L191.062 291.587L192.537 287.769Z" fill="#D0F2E3"/>
<path d="M185.996 334.807C185.996 336.009 185.096 336.971 183.992 336.971C182.889 336.971 181.989 335.999 181.989 334.807C181.989 333.614 182.889 332.642 183.992 332.642C185.096 332.642 185.996 333.614 185.996 334.807Z" fill="#88BCA4"/>
<path d="M203.083 334.807C203.083 336.009 202.183 336.971 201.079 336.971C199.976 336.971 199.076 335.999 199.076 334.807C199.076 333.614 199.976 332.642 201.079 332.642C202.183 332.642 203.083 333.614 203.083 334.807Z" fill="#88BCA4"/>
<path d="M336.192 302.231C336.192 296.419 334.486 291.068 331.62 286.779C330.627 285.296 330.219 283.492 330.433 281.678C330.544 280.706 330.609 279.704 330.609 278.692C330.609 267.008 323.124 257.528 313.885 257.528C304.647 257.528 297.162 267.008 297.162 278.692C297.162 279.704 297.218 280.706 297.338 281.678C297.552 283.492 297.134 285.296 296.151 286.779C293.285 291.068 291.578 296.419 291.578 302.231C291.578 308.043 293.183 313.043 295.882 317.262C296.856 318.785 297.32 320.609 297.218 322.462C297.19 322.953 297.171 323.454 297.171 323.956C297.171 335.64 304.657 345.119 313.895 345.119C323.133 345.119 330.618 335.64 330.618 323.956C330.618 323.454 330.599 322.953 330.572 322.462C330.47 320.609 330.924 318.795 331.907 317.262C334.606 313.043 336.211 307.862 336.211 302.231H336.192Z" fill="#D0F2E3"/>
<path d="M313.875 279.073H312.02V366.914H313.875V279.073Z" fill="#88BCA4"/>
<path d="M306.009 290.236L304.615 291.542L312.255 301.057L313.649 299.751L306.009 290.236Z" fill="#88BCA4"/>
<path d="M321.818 305.984L312.302 316.251L313.606 317.663L323.123 307.395L321.818 305.984Z" fill="#88BCA4"/>
<path d="M93.5304 302.231C93.5304 296.419 91.8238 291.068 88.9577 286.779C87.9653 285.296 87.5572 283.492 87.7705 281.678C87.8818 280.706 87.9467 279.704 87.9467 278.692C87.9467 267.008 80.4616 257.528 71.2234 257.528C61.9853 257.528 54.5001 267.008 54.5001 278.692C54.5001 279.704 54.5558 280.706 54.6764 281.678C54.8897 283.492 54.4723 285.296 53.4892 286.779C50.6231 291.068 48.9164 296.419 48.9164 302.231C48.9164 308.043 50.521 313.043 53.2201 317.262C54.194 318.785 54.6578 320.609 54.5558 322.462C54.5279 322.953 54.5094 323.454 54.5094 323.956C54.5094 335.64 61.9945 345.119 71.2327 345.119C80.4708 345.119 87.956 335.64 87.956 323.956C87.956 323.454 87.9375 322.953 87.9096 322.462C87.8076 320.609 88.2621 318.795 89.2453 317.262C91.9444 313.043 93.549 307.862 93.549 302.231H93.5304Z" fill="#D0F2E3"/>
<path d="M71.2054 279.073H69.3503V366.914H71.2054V279.073Z" fill="#88BCA4"/>
<path d="M63.3394 290.228L61.9451 291.535L69.5849 301.05L70.9792 299.743L63.3394 290.228Z" fill="#88BCA4"/>
<path d="M79.1308 305.867L69.6158 316.136L70.9203 317.546L80.4353 307.278L79.1308 305.867Z" fill="#88BCA4"/>
<path d="M381 366.222H0V369.05H381V366.222Z" fill="#88BCA4"/>
</g>
</svg>
