<svg width="29" height="30" viewBox="0 0 29 30" fill="none" xmlns="http://www.w3.org/2000/svg">
<path d="M3.05085 10.9769H3.3706L11.6366 8.87315L8.44721 5.39314L2.04298 7.02215L3.05085 10.9769ZM17.5965 24.4362L13.8961 26.5351C13.6984 26.6469 13.4829 26.702 13.2636 26.7004C13.0433 26.6988 12.8272 26.6405 12.6312 26.5243C12.4318 26.4082 12.2758 26.2489 12.1688 26.0588C12.0602 25.8692 12.0051 25.6547 12.0068 25.4263L12.0392 21.1728C12.0408 20.9416 12.1002 20.7256 12.212 20.5376C12.3222 20.348 12.4815 20.1903 12.6792 20.0785C12.8785 19.9667 13.0924 19.9116 13.3117 19.9132C13.5321 19.9149 13.7481 19.9732 13.9458 20.0893L17.6127 22.2433C17.8104 22.3595 17.9681 22.5188 18.075 22.7089C18.182 22.899 18.2387 23.1145 18.2371 23.3414C18.2355 23.5726 18.176 23.7886 18.0642 23.9766C17.9541 24.1662 17.7942 24.3244 17.5965 24.4362ZM13.5164 25.0163L16.4882 23.3306L13.5423 21.6006L13.5164 25.0163ZM6.37314 13.6716C6.85979 13.6716 7.25354 14.0664 7.25354 14.552C7.25354 15.0376 6.85979 15.4324 6.37314 15.4324C5.88649 15.4324 5.49274 15.0386 5.49274 14.552C5.49274 14.0653 5.88757 13.6716 6.37314 13.6716ZM5.36419 7.50124C5.83572 7.38187 6.31481 7.66651 6.43417 8.13642C6.55516 8.60795 6.27052 9.08704 5.79899 9.2064C5.32746 9.32577 4.84838 9.04275 4.72901 8.57122C4.60964 8.09969 4.89429 7.6206 5.36419 7.50124ZM13.4099 8.42161L17.8588 7.28843L14.671 3.80842L10.2221 4.9416L13.4099 8.42161ZM19.6337 6.83851L23.6111 5.8247L22.5854 1.79323L16.4443 3.35634L19.6337 6.83851ZM9.93579 10.9769H27.9346C28.3835 10.9769 28.7459 11.3399 28.7459 11.7871V29.1893C28.7459 29.6381 28.3829 30.0006 27.9346 30.0006H2.46266C2.01544 30.0006 1.65247 29.6376 1.65247 29.1893V12.0534L0.275162 6.6365C0.164977 6.20332 0.426936 5.76204 0.860114 5.65348L22.9711 0.0254063C23.4043 -0.0847786 23.8455 0.177181 23.9541 0.610359L25.3811 6.21089C25.4913 6.64406 25.2283 7.08534 24.7945 7.19553L9.93579 10.9769ZM3.57099 12.5984L3.2723 12.6734V16.7568H9.78563L12.018 12.5984H3.57099ZM22.4807 12.5984L20.25 16.7568H27.1245V12.5984H22.4807ZM18.4141 16.7568L20.6465 12.5984H13.8517L11.621 16.7568H18.4141ZM27.1245 18.3766H3.27284V28.3791H27.125L27.1245 18.3766Z" fill="#219653"/>
</svg>
