<svg width="28" height="28" viewBox="0 0 28 28" fill="none" xmlns="http://www.w3.org/2000/svg">
<path d="M2.95776 21.9871C2.96836 20.2303 2.98085 18.4649 2.94715 16.7262C2.29625 16.6857 1.77578 16.5583 1.35329 16.3262C0.866517 16.0591 0.518289 15.6609 0.261799 15.1055C-0.0227741 14.4914 -0.0514811 13.9148 0.0620986 13.4C0.210626 12.7297 0.603162 12.1755 0.983841 11.7849L11.2453 1.52839C11.3265 1.44539 11.4101 1.35677 11.4968 1.26628C12.0841 0.64596 12.7044 -0.00681103 14.0542 5.36777e-05C15.3261 0.00691838 16.0175 0.744562 16.5979 1.36426C16.6897 1.46161 16.7783 1.55522 16.86 1.63822C17.9603 2.74032 19.1547 3.91668 20.3679 5.11239C22.6925 7.40333 25.0927 9.76853 27.0672 11.8435C27.6401 12.4433 27.9571 13.2215 27.9746 13.9785C27.9815 14.3286 27.9253 14.6755 27.7992 14.9994C27.6719 15.3264 27.4735 15.6291 27.2033 15.8856C26.724 16.3437 26.0126 16.6607 25.0484 16.7243C25.0147 18.4118 25.0253 20.1261 25.0359 21.8317C25.0415 22.6261 25.0465 23.4187 25.0484 24.2056C25.0484 24.982 24.9847 25.5255 24.8075 25.9761C24.6234 26.4398 24.3313 26.7936 23.8808 27.188C22.9908 27.9631 22.1808 27.9556 21.0026 27.9469C20.8734 27.945 20.7405 27.9431 20.6025 27.9431C19.9585 27.9431 19.4137 27.9594 18.9575 27.9712C17.7456 28.0049 17.1228 28.0224 16.7483 27.6723C16.352 27.301 16.3608 26.6357 16.382 25.2665C16.3876 24.927 16.3945 24.5358 16.3945 23.9909C16.3945 23.7875 16.4013 23.4424 16.4107 23.0549C16.4357 22.0445 16.4656 20.7321 16.3595 20.191C16.1879 19.303 15.2612 19.3086 14.2315 19.3155H13.7553C12.6638 19.3117 11.7065 19.3086 11.6079 20.3589C11.5405 21.0859 11.5617 22.052 11.5811 22.9469C11.5917 23.375 11.6004 23.7869 11.6004 24.097C11.6004 24.5851 11.6042 24.8827 11.606 25.1461C11.6204 26.6282 11.6273 27.3272 11.2029 27.7041C10.8241 28.0386 10.2125 28.0174 9.05361 27.9781C8.56872 27.9619 7.98522 27.9425 7.28626 27.9425C7.19265 27.9444 7.10217 27.9444 7.01355 27.9444C5.65496 27.95 4.94041 27.9513 3.99745 27.0794C3.55686 26.6726 3.2935 26.2994 3.13749 25.8307C2.98709 25.3757 2.94465 24.8403 2.94652 24.0989C2.94839 23.3968 2.95339 22.6923 2.95713 21.9865L2.95776 21.9871ZM9.49233 25.8207C9.48859 25.3445 9.47798 24.8228 9.4655 24.2855C9.43367 22.8458 9.39997 21.2888 9.51355 20.1037C9.80187 17.1443 12.4554 17.1774 14.4967 17.2061C14.6402 17.208 14.78 17.2099 15.0184 17.2099C18.1088 17.2099 18.6149 19.4228 18.6149 22.1437C18.6149 22.7541 18.5868 23.4156 18.5581 24.0846C18.5331 24.6631 18.5101 25.2453 18.5051 25.8326C22.2519 26.0323 22.8854 25.7814 22.9559 24.5432C22.9721 24.2512 22.9628 23.9117 22.954 23.5173C22.9471 23.2202 22.9397 22.8945 22.9397 22.5955C22.9397 22.4046 22.934 22.15 22.9291 21.8067C22.8991 19.8965 22.8317 15.5461 23.1269 15.0949C23.4489 14.605 23.9918 14.6188 24.5685 14.6369C24.8655 14.6437 25.1732 14.6531 25.4266 14.5782C25.8584 14.449 25.952 14.2225 25.8778 13.9697C25.7118 13.4143 24.956 12.7016 24.5086 12.2785C23.1818 11.026 14.5953 1.8841 13.882 2.08193C13.56 2.17242 13.13 2.61239 12.3431 3.42117C9.11976 6.72746 5.80661 9.96636 2.53901 13.2321C2.42917 13.3419 2.32121 13.4848 2.24195 13.6408C1.78202 14.5557 2.69315 14.6512 3.36714 14.6244C3.87638 14.6032 4.38249 14.5838 4.73821 14.9408C5.12763 15.3314 5.09205 16.2906 5.06522 17.0108C5.0596 17.1593 5.05461 17.2972 5.05461 17.4408V22.4895C5.05461 22.7335 5.044 23.0093 5.03339 23.2839C5.02466 23.526 5.01405 23.7669 5.01405 24.0253C5.01405 25.025 5.16632 25.8388 6.39198 25.8388L9.49108 25.8226L9.49233 25.8207Z" fill="#219653"/>
</svg>
